<svg width="23" height="25" viewBox="0 0 23 25" fill="none" xmlns="http://www.w3.org/2000/svg">
<path d="M3.28613 2.5C3.28613 1.11929 4.46297 0 5.91466 0H14.786L23.0001 7.8125V22.5C23.0001 23.8807 21.8233 25 20.3716 25H5.91466C4.46297 25 3.28613 23.8807 3.28613 22.5V2.5Z" fill="white"/>
<path fill-rule="evenodd" clip-rule="evenodd" d="M5.91466 24.0625H20.3716C21.2789 24.0625 22.0144 23.3629 22.0144 22.5V8.20082L14.3777 0.9375H5.91466C5.00735 0.9375 4.27183 1.63706 4.27183 2.5V22.5C4.27183 23.3629 5.00735 24.0625 5.91466 24.0625ZM14.786 0H5.91466C4.46297 0 3.28613 1.11929 3.28613 2.5V22.5C3.28613 23.8807 4.46297 25 5.91466 25H20.3716C21.8233 25 23.0001 23.8807 23.0001 22.5V7.8125L14.786 0Z" fill="#C8D2E1"/>
<rect y="10.625" width="16.4283" height="10" rx="1.25" fill="#344054"/>
<path d="M13.9918 14.9435H13.0197C13.002 14.8178 12.9657 14.7061 12.911 14.6084C12.8562 14.5093 12.7859 14.4249 12.7001 14.3554C12.6143 14.2858 12.5152 14.2326 12.4027 14.1956C12.2917 14.1586 12.1711 14.1401 12.0409 14.1401C11.8057 14.1401 11.6007 14.1985 11.4261 14.3154C11.2515 14.4308 11.1162 14.5995 11.02 14.8215C10.9238 15.0419 10.8757 15.3097 10.8757 15.6249C10.8757 15.949 10.9238 16.2212 11.02 16.4417C11.1176 16.6621 11.2538 16.8286 11.4284 16.9411C11.603 17.0535 11.8049 17.1097 12.0343 17.1097C12.163 17.1097 12.2821 17.0927 12.3916 17.0587C12.5026 17.0247 12.601 16.9751 12.6868 16.91C12.7726 16.8434 12.8436 16.7628 12.8999 16.6681C12.9576 16.5734 12.9975 16.4653 13.0197 16.344L13.9918 16.3485C13.9667 16.5571 13.9038 16.7583 13.8032 16.9521C13.704 17.1445 13.5701 17.3169 13.4015 17.4693C13.2343 17.6202 13.0345 17.7401 12.8022 17.8288C12.5714 17.9161 12.3102 17.9598 12.0187 17.9598C11.6133 17.9598 11.2508 17.868 10.9312 17.6846C10.6131 17.5011 10.3615 17.2355 10.1766 16.8878C9.9931 16.5401 9.90137 16.1191 9.90137 15.6249C9.90137 15.1292 9.99458 14.7075 10.181 14.3598C10.3675 14.0121 10.6205 13.7472 10.9401 13.5653C11.2597 13.3818 11.6192 13.29 12.0187 13.29C12.2821 13.29 12.5262 13.327 12.7512 13.401C12.9775 13.475 13.178 13.583 13.3526 13.7251C13.5272 13.8656 13.6693 14.038 13.7788 14.2422C13.8897 14.4464 13.9608 14.6802 13.9918 14.9435Z" fill="white"/>
<path d="M5.96484 14.1449V13.3525H9.69798V14.1449H8.30637V17.898H7.35645V14.1449H5.96484Z" fill="white"/>
<path d="M2.43652 17.898V13.3525H5.49938V14.1449H3.39755V15.228H5.3418V16.0203H3.39755V17.1056H5.50826V17.898H2.43652Z" fill="white"/>
<path fill-rule="evenodd" clip-rule="evenodd" d="M14.4567 0.15625C14.7289 0.15625 14.9496 0.366117 14.9496 0.625V6.25C14.9496 7.02665 15.6115 7.65625 16.4281 7.65625H22.3423C22.6145 7.65625 22.8352 7.86612 22.8352 8.125C22.8352 8.38388 22.6145 8.59375 22.3423 8.59375H16.4281C15.0671 8.59375 13.9639 7.54442 13.9639 6.25V0.625C13.9639 0.366117 14.1845 0.15625 14.4567 0.15625Z" fill="#C8D2E1"/>
</svg>
