<svg width="23" height="25" viewBox="0 0 23 25" fill="none" xmlns="http://www.w3.org/2000/svg">
<path d="M3.28516 2.5C3.28516 1.11929 4.46199 0 5.91369 0H14.785L22.9991 7.8125V22.5C22.9991 23.8807 21.8223 25 20.3706 25H5.91369C4.46199 25 3.28516 23.8807 3.28516 22.5V2.5Z" fill="white"/>
<path fill-rule="evenodd" clip-rule="evenodd" d="M5.91369 24.0625H20.3706C21.2779 24.0625 22.0134 23.3629 22.0134 22.5V8.20082L14.3767 0.9375H5.91369C5.00638 0.9375 4.27086 1.63706 4.27086 2.5V22.5C4.27086 23.3629 5.00638 24.0625 5.91369 24.0625ZM14.785 0H5.91369C4.46199 0 3.28516 1.11929 3.28516 2.5V22.5C3.28516 23.8807 4.46199 25 5.91369 25H20.3706C21.8223 25 22.9991 23.8807 22.9991 22.5V7.8125L14.785 0Z" fill="#C8D2E1"/>
<rect y="10.625" width="15.7712" height="10" rx="1.25" fill="#0DB664"/>
<path d="M12.6172 14.6585C12.5994 14.4794 12.5232 14.3403 12.3886 14.2412C12.2539 14.1421 12.0712 14.0925 11.8404 14.0925C11.6835 14.0925 11.5511 14.1147 11.4431 14.1591C11.3351 14.202 11.2522 14.2619 11.1945 14.3389C11.1383 14.4158 11.1102 14.5031 11.1102 14.6008C11.1072 14.6821 11.1242 14.7532 11.1612 14.8138C11.1997 14.8745 11.2522 14.927 11.3188 14.9714C11.3854 15.0143 11.4623 15.0521 11.5496 15.0846C11.6369 15.1157 11.7301 15.1423 11.8293 15.1645L12.2377 15.2622C12.4359 15.3066 12.6179 15.3657 12.7836 15.4397C12.9494 15.5137 13.0929 15.6047 13.2142 15.7127C13.3356 15.8207 13.4295 15.948 13.4961 16.0945C13.5642 16.2409 13.5989 16.4089 13.6004 16.5983C13.5989 16.8765 13.5279 17.1176 13.3873 17.3218C13.2483 17.5245 13.047 17.6821 12.7836 17.7946C12.5218 17.9055 12.2058 17.961 11.8359 17.961C11.469 17.961 11.1494 17.9048 10.8771 17.7923C10.6064 17.6799 10.3948 17.5134 10.2424 17.293C10.0914 17.071 10.0123 16.7965 10.0049 16.4695H10.9348C10.9452 16.622 10.9888 16.7492 11.0658 16.8513C11.1442 16.9519 11.2485 17.0281 11.3787 17.0799C11.5104 17.1302 11.6591 17.1554 11.8248 17.1554C11.9876 17.1554 12.1289 17.1317 12.2488 17.0843C12.3701 17.037 12.464 16.9711 12.5306 16.8868C12.5972 16.8025 12.6305 16.7056 12.6305 16.5961C12.6305 16.494 12.6002 16.4081 12.5395 16.3386C12.4803 16.2691 12.393 16.2099 12.2776 16.161C12.1637 16.1122 12.0239 16.0678 11.8581 16.0279L11.3632 15.9036C10.98 15.8104 10.6774 15.6646 10.4554 15.4664C10.2335 15.2681 10.1233 15.001 10.1247 14.6651C10.1233 14.3899 10.1965 14.1495 10.3445 13.9438C10.4939 13.7381 10.6988 13.5776 10.9593 13.4622C11.2197 13.3468 11.5156 13.2891 11.847 13.2891C12.1844 13.2891 12.4788 13.3468 12.7304 13.4622C12.9834 13.5776 13.1802 13.7381 13.3208 13.9438C13.4613 14.1495 13.5338 14.3877 13.5383 14.6585H12.6172Z" fill="white"/>
<path d="M6.72949 17.897V13.3516H7.69052V17.1047H9.6392V17.897H6.72949Z" fill="white"/>
<path d="M3.28826 13.3516L4.2049 14.9007H4.24041L5.16149 13.3516H6.2468L4.85964 15.6243L6.27788 17.897H5.17259L4.24041 16.3456H4.2049L3.27273 17.897H2.17188L3.59455 15.6243L2.19851 13.3516H3.28826Z" fill="white"/>
<path fill-rule="evenodd" clip-rule="evenodd" d="M14.4567 0.15625C14.7289 0.15625 14.9496 0.366117 14.9496 0.625V6.25C14.9496 7.02665 15.6115 7.65625 16.4281 7.65625H22.3423C22.6145 7.65625 22.8352 7.86612 22.8352 8.125C22.8352 8.38388 22.6145 8.59375 22.3423 8.59375H16.4281C15.0671 8.59375 13.9639 7.54442 13.9639 6.25V0.625C13.9639 0.366117 14.1845 0.15625 14.4567 0.15625Z" fill="#C8D2E1"/>
</svg>
