<svg width="23" height="25" viewBox="0 0 23 25" fill="none" xmlns="http://www.w3.org/2000/svg">
<path d="M3.28516 2.5C3.28516 1.11929 4.46201 0 5.91373 0H14.7852L22.9995 7.8125V22.5C22.9995 23.8807 21.8226 25 20.3709 25H5.91373C4.46201 25 3.28516 23.8807 3.28516 22.5V2.5Z" fill="white"/>
<path fill-rule="evenodd" clip-rule="evenodd" d="M5.91373 24.0625H20.3709C21.2782 24.0625 22.0137 23.3629 22.0137 22.5V8.20082L14.3769 0.9375H5.91373C5.0064 0.9375 4.27087 1.63706 4.27087 2.5V22.5C4.27087 23.3629 5.0064 24.0625 5.91373 24.0625ZM14.7852 0H5.91373C4.46201 0 3.28516 1.11929 3.28516 2.5V22.5C3.28516 23.8807 4.46201 25 5.91373 25H20.3709C21.8226 25 22.9995 23.8807 22.9995 22.5V7.8125L14.7852 0Z" fill="#C8D2E1"/>
<rect y="10.625" width="22.6714" height="10" rx="1.25" fill="#6E45F0"/>
<path d="M20.2296 15.6249C20.2296 16.0958 20.1404 16.4964 19.9618 16.8267C19.7847 17.157 19.543 17.4094 19.2365 17.5837C18.9315 17.7565 18.5885 17.843 18.2076 17.843C17.8238 17.843 17.4795 17.7558 17.1744 17.5815C16.8694 17.4072 16.6283 17.1549 16.4512 16.8246C16.2741 16.4943 16.1855 16.0944 16.1855 15.6249C16.1855 15.154 16.2741 14.7534 16.4512 14.423C16.6283 14.0927 16.8694 13.8411 17.1744 13.6682C17.4795 13.4939 17.8238 13.4067 18.2076 13.4067C18.5885 13.4067 18.9315 13.4939 19.2365 13.6682C19.543 13.8411 19.7847 14.0927 19.9618 14.423C20.1404 14.7534 20.2296 15.154 20.2296 15.6249ZM19.304 15.6249C19.304 15.3198 19.2583 15.0626 19.1669 14.8532C19.077 14.6437 18.9498 14.4849 18.7853 14.3766C18.6209 14.2684 18.4283 14.2143 18.2076 14.2143C17.9869 14.2143 17.7943 14.2684 17.6299 14.3766C17.4654 14.4849 17.3375 14.6437 17.2461 14.8532C17.1562 15.0626 17.1112 15.3198 17.1112 15.6249C17.1112 15.9299 17.1562 16.1871 17.2461 16.3966C17.3375 16.606 17.4654 16.7649 17.6299 16.8731C17.7943 16.9813 17.9869 17.0354 18.2076 17.0354C18.4283 17.0354 18.6209 16.9813 18.7853 16.8731C18.9498 16.7649 19.077 16.606 19.1669 16.3966C19.2583 16.1871 19.304 15.9299 19.304 15.6249Z" fill="white"/>
<path d="M12.7441 17.784V13.4658H15.6539V14.2186H13.6571V15.2475H15.5042V16.0002H13.6571V17.0313H15.6623V17.784H12.7441Z" fill="white"/>
<path d="M10.0737 17.784H8.54297V13.4658H10.0864C10.5207 13.4658 10.8946 13.5523 11.2081 13.7252C11.5216 13.8967 11.7626 14.1433 11.9313 14.4652C12.1014 14.7871 12.1864 15.1723 12.1864 15.6207C12.1864 16.0705 12.1014 16.4571 11.9313 16.7804C11.7626 17.1037 11.5202 17.3518 11.2039 17.5247C10.889 17.6976 10.5123 17.784 10.0737 17.784ZM9.45594 17.0018H10.0358C10.3057 17.0018 10.5327 16.954 10.7168 16.8584C10.9024 16.7614 11.0415 16.6117 11.1343 16.4093C11.2285 16.2054 11.2756 15.9426 11.2756 15.6207C11.2756 15.3016 11.2285 15.0409 11.1343 14.8384C11.0415 14.636 10.9031 14.487 10.7189 14.3914C10.5348 14.2959 10.3078 14.2481 10.0379 14.2481H9.45594V17.0018Z" fill="white"/>
<path d="M7.91102 13.4658V17.784H6.99805V13.4658H7.91102Z" fill="white"/>
<path d="M3.45559 13.4658L4.49929 16.7466H4.53935L5.58516 13.4658H6.59723L5.10864 17.784H3.93211L2.44141 13.4658H3.45559Z" fill="white"/>
<path fill-rule="evenodd" clip-rule="evenodd" d="M14.4567 0.15625C14.7289 0.15625 14.9496 0.366117 14.9496 0.625V6.25C14.9496 7.02665 15.6116 7.65625 16.4282 7.65625H22.3424C22.6146 7.65625 22.8353 7.86612 22.8353 8.125C22.8353 8.38388 22.6146 8.59375 22.3424 8.59375H16.4282C15.0672 8.59375 13.9639 7.54442 13.9639 6.25V0.625C13.9639 0.366117 14.1845 0.15625 14.4567 0.15625Z" fill="#C8D2E1"/>
</svg>
