<svg width="23" height="25" viewBox="0 0 23 25" fill="none" xmlns="http://www.w3.org/2000/svg">
<path d="M3.28516 2.49999C3.28516 1.11928 4.46201 0 5.91374 0H14.7852L22.9995 7.81246V22.4999C22.9995 23.8806 21.8227 24.9999 20.371 24.9999H5.91374C4.46201 24.9999 3.28516 23.8806 3.28516 22.4999V2.49999Z" fill="white"/>
<path fill-rule="evenodd" clip-rule="evenodd" d="M5.91374 24.0624H20.371C21.2783 24.0624 22.0138 23.3628 22.0138 22.4999V8.20078L14.3769 0.937495H5.91374C5.00641 0.937495 4.27088 1.63705 4.27088 2.49999V22.4999C4.27088 23.3628 5.00641 24.0624 5.91374 24.0624ZM14.7852 0H5.91374C4.46201 0 3.28516 1.11928 3.28516 2.49999V22.4999C3.28516 23.8806 4.46201 24.9999 5.91374 24.9999H20.371C21.8227 24.9999 22.9995 23.8806 22.9995 22.4999V7.81246L14.7852 0Z" fill="#C8D2E1"/>
<path fill-rule="evenodd" clip-rule="evenodd" d="M14.4577 0.156738C14.7299 0.156738 14.9506 0.366604 14.9506 0.625486V6.25045C14.9506 7.0271 15.6125 7.6567 16.4291 7.6567H22.3435C22.6157 7.6567 22.8363 7.86656 22.8363 8.12544C22.8363 8.38433 22.6157 8.59419 22.3435 8.59419H16.4291C15.0681 8.59419 13.9648 7.54486 13.9648 6.25045V0.625486C13.9648 0.366604 14.1855 0.156738 14.4577 0.156738Z" fill="#C8D2E1"/>
<rect y="10.625" width="16.1001" height="9.99994" rx="1.27856" fill="#3873FF"/>
<path d="M12.7632 14.8032C12.7315 14.6927 12.6868 14.5951 12.6293 14.5104C12.5718 14.4241 12.5014 14.3515 12.4182 14.2924C12.3365 14.2319 12.2426 14.1857 12.1367 14.154C12.0323 14.1222 11.9165 14.1063 11.7893 14.1063C11.5517 14.1063 11.3429 14.1653 11.1628 14.2834C10.9842 14.4014 10.845 14.5732 10.7451 14.7987C10.6452 15.0227 10.5952 15.2966 10.5952 15.6205C10.5952 15.9444 10.6444 16.2198 10.7428 16.4468C10.8412 16.6738 10.9804 16.8471 11.1605 16.9667C11.3406 17.0847 11.5532 17.1438 11.7984 17.1438C12.0209 17.1438 12.2108 17.1044 12.3682 17.0257C12.5271 16.9455 12.6482 16.8328 12.7315 16.6875C12.8162 16.5422 12.8586 16.3704 12.8586 16.1721L13.0584 16.2017H11.8597V15.4616H13.8053V16.0473C13.8053 16.4559 13.719 16.807 13.5465 17.1006C13.3739 17.3927 13.1363 17.6182 12.8336 17.7771C12.5309 17.9345 12.1844 18.0132 11.7939 18.0132C11.358 18.0132 10.9751 17.9171 10.6452 17.7249C10.3152 17.5312 10.058 17.2565 9.87332 16.9009C9.6902 16.5437 9.59863 16.1199 9.59863 15.6296C9.59863 15.2527 9.65312 14.9167 9.76208 14.6216C9.87257 14.325 10.0269 14.0738 10.2252 13.8679C10.4235 13.6621 10.6543 13.5055 10.9176 13.398C11.1809 13.2905 11.4662 13.2368 11.7735 13.2368C12.0368 13.2368 12.282 13.2754 12.509 13.3526C12.736 13.4283 12.9373 13.5357 13.1128 13.675C13.2899 13.8142 13.4345 13.9799 13.5465 14.1721C13.6584 14.3628 13.7303 14.5732 13.7621 14.8032H12.7632Z" fill="white"/>
<path d="M3.95898 13.3003H5.17125L6.45163 16.424H6.50611L7.78648 13.3003H8.99875V17.9496H8.04528V14.9235H8.00669L6.8035 17.9269H6.15424L4.95105 14.9121H4.91245V17.9496H3.95898V13.3003Z" fill="white"/>
<path d="M3.2779 13.3003V17.9496H2.29492V13.3003H3.2779Z" fill="white"/>
</svg>
