<svg width="23" height="25" viewBox="0 0 23 25" fill="none" xmlns="http://www.w3.org/2000/svg">
<path d="M3.28516 2.5C3.28516 1.11929 4.46201 0 5.91373 0H14.7852L22.9994 7.8125V22.5C22.9994 23.8807 21.8226 25 20.3709 25H5.91373C4.46201 25 3.28516 23.8807 3.28516 22.5V2.5Z" fill="white"/>
<path fill-rule="evenodd" clip-rule="evenodd" d="M5.91373 24.0625H20.3709C21.2782 24.0625 22.0137 23.3629 22.0137 22.5V8.20082L14.3769 0.9375H5.91373C5.0064 0.9375 4.27087 1.63706 4.27087 2.5V22.5C4.27087 23.3629 5.0064 24.0625 5.91373 24.0625ZM14.7852 0H5.91373C4.46201 0 3.28516 1.11929 3.28516 2.5V22.5C3.28516 23.8807 4.46201 25 5.91373 25H20.3709C21.8226 25 22.9994 23.8807 22.9994 22.5V7.8125L14.7852 0Z" fill="#C8D2E1"/>
<rect y="10.625" width="16.1" height="10" rx="1.25" fill="#FF1607"/>
<path d="M10.7168 17.8975V13.3521H13.7264V14.1444H11.6778V15.2275H13.5266V16.0198H11.6778V17.8975H10.7168Z" fill="white"/>
<path d="M7.90625 17.8975H6.29492V13.3521H7.91957C8.37678 13.3521 8.77036 13.443 9.10032 13.625C9.43028 13.8056 9.68404 14.0652 9.86159 14.4041C10.0406 14.7429 10.1301 15.1483 10.1301 15.6203C10.1301 16.0938 10.0406 16.5007 9.86159 16.841C9.68404 17.1814 9.4288 17.4425 9.09588 17.6245C8.76444 17.8065 8.3679 17.8975 7.90625 17.8975ZM7.25595 17.0741H7.8663C8.15039 17.0741 8.38935 17.0238 8.58319 16.9232C8.7785 16.8211 8.92498 16.6635 9.02264 16.4504C9.12177 16.2359 9.17134 15.9592 9.17134 15.6203C9.17134 15.2845 9.12177 15.01 9.02264 14.7969C8.92498 14.5839 8.77924 14.427 8.5854 14.3264C8.39157 14.2258 8.15261 14.1755 7.86852 14.1755H7.25595V17.0741Z" fill="white"/>
<path d="M2.37305 17.8975V13.3521H4.16637C4.51113 13.3521 4.80484 13.4179 5.0475 13.5496C5.29016 13.6798 5.47511 13.861 5.60236 14.0934C5.73109 14.3242 5.79545 14.5905 5.79545 14.8924C5.79545 15.1942 5.73035 15.4605 5.60014 15.6914C5.46993 15.9222 5.28128 16.102 5.03418 16.2307C4.78856 16.3594 4.49115 16.4238 4.14196 16.4238H2.99893V15.6536H3.98659C4.17155 15.6536 4.32395 15.6218 4.4438 15.5582C4.56513 15.4931 4.65539 15.4036 4.71458 15.2896C4.77524 15.1742 4.80558 15.0418 4.80558 14.8924C4.80558 14.7414 4.77524 14.6097 4.71458 14.4973C4.65539 14.3834 4.56513 14.2953 4.4438 14.2332C4.32247 14.1696 4.16859 14.1377 3.98216 14.1377H3.33407V17.8975H2.37305Z" fill="white"/>
<path fill-rule="evenodd" clip-rule="evenodd" d="M14.4577 0.15625C14.7299 0.15625 14.9506 0.366117 14.9506 0.625V6.25C14.9506 7.02665 15.6125 7.65625 16.4291 7.65625H22.3434C22.6156 7.65625 22.8363 7.86612 22.8363 8.125C22.8363 8.38388 22.6156 8.59375 22.3434 8.59375H16.4291C15.0681 8.59375 13.9648 7.54442 13.9648 6.25V0.625C13.9648 0.366117 14.1855 0.15625 14.4577 0.15625Z" fill="#C8D2E1"/>
</svg>
