<svg width="20" height="20" viewBox="0 0 20 20" fill="none" xmlns="http://www.w3.org/2000/svg">
<mask id="mask0_2430_3214" style="mask-type:alpha" maskUnits="userSpaceOnUse" x="1" y="2" width="18" height="16">
<path fill-rule="evenodd" clip-rule="evenodd" d="M1.66669 3.75C1.66669 3.41848 1.79211 3.10054 2.01537 2.86612C2.23863 2.6317 2.54143 2.5 2.85716 2.5H17.1429C17.4586 2.5 17.7614 2.6317 17.9847 2.86612C18.2079 3.10054 18.3334 3.41848 18.3334 3.75C18.3334 4.08152 18.2079 4.39946 17.9847 4.63388C17.7614 4.8683 17.4586 5 17.1429 5H2.85716C2.54143 5 2.23863 4.8683 2.01537 4.63388C1.79211 4.39946 1.66669 4.08152 1.66669 3.75ZM1.66669 10C1.66669 9.66848 1.79211 9.35054 2.01537 9.11612C2.23863 8.8817 2.54143 8.75 2.85716 8.75H17.1429C17.4586 8.75 17.7614 8.8817 17.9847 9.11612C18.2079 9.35054 18.3334 9.66848 18.3334 10C18.3334 10.3315 18.2079 10.6495 17.9847 10.8839C17.7614 11.1183 17.4586 11.25 17.1429 11.25H2.85716C2.54143 11.25 2.23863 11.1183 2.01537 10.8839C1.79211 10.6495 1.66669 10.3315 1.66669 10ZM1.66669 16.25C1.66669 15.9185 1.79211 15.6005 2.01537 15.3661C2.23863 15.1317 2.54143 15 2.85716 15H17.1429C17.4586 15 17.7614 15.1317 17.9847 15.3661C18.2079 15.6005 18.3334 15.9185 18.3334 16.25C18.3334 16.5815 18.2079 16.8995 17.9847 17.1339C17.7614 17.3683 17.4586 17.5 17.1429 17.5H2.85716C2.54143 17.5 2.23863 17.3683 2.01537 17.1339C1.79211 16.8995 1.66669 16.5815 1.66669 16.25Z" fill="#006FFD"/>
</mask>
<g mask="url(#mask0_2430_3214)">
<rect width="20" height="20" fill="#2F3A56"/>
</g>
</svg>
