<svg width="24" height="24" viewBox="0 0 24 24" fill="none" xmlns="http://www.w3.org/2000/svg">
<path d="M13.8335 19.1062C13.8335 20.1148 13.0083 20.94 11.9998 20.94C10.982 20.94 10.166 20.1148 10.166 19.1062H13.8335Z" fill="#2F3A56"/>
<path d="M17.5013 10.8539V15.4385L19.335 17.2724V18.1893H7.56464L16.9487 8.08336C17.3113 8.91081 17.5013 9.8534 17.5013 10.8539Z" fill="#2F3A56"/>
<path d="M16.1344 6.75591L5.51768 18.1893H4.66504V17.2724L6.49879 15.4385V10.8539C6.49879 8.02978 7.9933 5.68246 10.6247 5.05895V4.43544C10.6247 3.6744 11.239 3.06006 12 3.06006C12.761 3.06006 13.3754 3.6744 13.3754 4.43544V5.05895C14.5181 5.33066 15.4484 5.93147 16.1344 6.75591Z" fill="#2F3A56"/>
</svg>
