<svg width="16" height="16" viewBox="0 0 16 16" fill="none" xmlns="http://www.w3.org/2000/svg">
<circle cx="7.71429" cy="7.99993" r="7.71429" fill="#5F5F5F"/>
<path d="M3.77849 10.3051C3.38884 10.3051 3.05002 10.2415 2.76202 10.1145C2.47402 9.98743 2.24955 9.79684 2.08861 9.54272C1.92766 9.28437 1.83872 8.96249 1.82178 8.57707C1.81755 8.39496 1.81543 8.21284 1.81543 8.03072C1.81543 7.8486 1.81755 7.66437 1.82178 7.47802C1.83872 7.09684 1.92766 6.77707 2.08861 6.51872C2.25378 6.25613 2.48037 6.05919 2.76837 5.9279C3.05637 5.7966 3.39308 5.73096 3.77849 5.73096C4.15967 5.73096 4.49425 5.7966 4.78225 5.9279C5.07449 6.05919 5.30319 6.25613 5.46837 6.51872C5.63355 6.77707 5.72249 7.09684 5.73519 7.47802C5.74367 7.66437 5.7479 7.8486 5.7479 8.03072C5.7479 8.21284 5.74367 8.39496 5.73519 8.57707C5.71825 8.96249 5.62931 9.28437 5.46837 9.54272C5.30743 9.79684 5.08296 9.98743 4.79496 10.1145C4.50696 10.2415 4.16814 10.3051 3.77849 10.3051ZM3.77849 9.39025C4.00296 9.39025 4.18508 9.32249 4.32484 9.18696C4.46884 9.05143 4.54508 8.83543 4.55355 8.53896C4.56202 8.3526 4.56625 8.17684 4.56625 8.01166C4.56625 7.84649 4.56202 7.67496 4.55355 7.49707C4.54508 7.29802 4.50696 7.13707 4.43919 7.01425C4.37567 6.88719 4.28672 6.79402 4.17237 6.73472C4.05802 6.67543 3.92672 6.64578 3.77849 6.64578C3.63449 6.64578 3.50531 6.67543 3.39096 6.73472C3.27661 6.79402 3.18555 6.88719 3.11778 7.01425C3.05002 7.13707 3.0119 7.29802 3.00343 7.49707C2.99919 7.67496 2.99708 7.84649 2.99708 8.01166C2.99708 8.17684 2.99919 8.3526 3.00343 8.53896C3.01614 8.83543 3.09237 9.05143 3.23214 9.18696C3.3719 9.32249 3.55402 9.39025 3.77849 9.39025Z" fill="white"/>
<path d="M6.64312 10.2415C6.59653 10.2415 6.55841 10.2267 6.52877 10.1971C6.49912 10.1674 6.4843 10.1293 6.4843 10.0827V5.95331C6.4843 5.90672 6.49912 5.8686 6.52877 5.83896C6.55841 5.80931 6.59653 5.79449 6.64312 5.79449H9.55912C9.60571 5.79449 9.64382 5.80931 9.67347 5.83896C9.70735 5.8686 9.7243 5.90672 9.7243 5.95331V6.59496C9.7243 6.64155 9.70735 6.67966 9.67347 6.70931C9.64382 6.73896 9.60571 6.75378 9.55912 6.75378H7.60241V7.68766H9.43206C9.47865 7.68766 9.51677 7.7046 9.54641 7.73849C9.5803 7.76813 9.59724 7.80625 9.59724 7.85284V8.48813C9.59724 8.53049 9.5803 8.5686 9.54641 8.60249C9.51677 8.63213 9.47865 8.64696 9.43206 8.64696H7.60241V10.0827C7.60241 10.1293 7.58759 10.1674 7.55794 10.1971C7.5283 10.2267 7.49018 10.2415 7.44359 10.2415H6.64312Z" fill="white"/>
<path d="M10.5641 10.2415C10.5175 10.2415 10.4794 10.2267 10.4497 10.1971C10.4201 10.1674 10.4053 10.1293 10.4053 10.0827V5.95331C10.4053 5.90672 10.4201 5.8686 10.4497 5.83896C10.4794 5.80931 10.5175 5.79449 10.5641 5.79449H13.4801C13.5267 5.79449 13.5648 5.80931 13.5944 5.83896C13.6283 5.8686 13.6453 5.90672 13.6453 5.95331V6.59496C13.6453 6.64155 13.6283 6.67966 13.5944 6.70931C13.5648 6.73896 13.5267 6.75378 13.4801 6.75378H11.5234V7.68766H13.353C13.3996 7.68766 13.4377 7.7046 13.4674 7.73849C13.5013 7.76813 13.5182 7.80625 13.5182 7.85284V8.48813C13.5182 8.53049 13.5013 8.5686 13.4674 8.60249C13.4377 8.63213 13.3996 8.64696 13.353 8.64696H11.5234V10.0827C11.5234 10.1293 11.5085 10.1674 11.4789 10.1971C11.4493 10.2267 11.4111 10.2415 11.3645 10.2415H10.5641Z" fill="white"/>
</svg>
