<svg width="16" height="16" viewBox="0 0 16 16" fill="none" xmlns="http://www.w3.org/2000/svg">
<circle cx="7.71429" cy="7.99993" r="7.71429" fill="#36D646"/>
<path d="M5.55081 10.2688C5.16953 10.2688 4.83797 10.2057 4.55615 10.0797C4.27434 9.95365 4.05468 9.76457 3.8972 9.51247C3.73971 9.25617 3.65268 8.93684 3.6361 8.55449C3.63196 8.37381 3.62988 8.19314 3.62988 8.01247C3.62988 7.8318 3.63196 7.64902 3.6361 7.46415C3.65268 7.086 3.73971 6.76877 3.8972 6.51247C4.05883 6.25197 4.28055 6.05659 4.56237 5.92634C4.84419 5.79608 5.17367 5.73096 5.55081 5.73096C5.9238 5.73096 6.25121 5.79608 6.53303 5.92634C6.81899 6.05659 7.04279 6.25197 7.20442 6.51247C7.36605 6.76877 7.45309 7.086 7.46552 7.46415C7.47381 7.64902 7.47795 7.8318 7.47795 8.01247C7.47795 8.19314 7.47381 8.37381 7.46552 8.55449C7.44894 8.93684 7.36191 9.25617 7.20442 9.51247C7.04694 9.76457 6.82728 9.95365 6.54546 10.0797C6.26365 10.2057 5.93209 10.2688 5.55081 10.2688ZM5.55081 9.36121C5.77046 9.36121 5.94867 9.29398 6.08544 9.15953C6.22635 9.02507 6.30094 8.81079 6.30923 8.51667C6.31752 8.3318 6.32167 8.15743 6.32167 7.99356C6.32167 7.8297 6.31752 7.65953 6.30923 7.48306C6.30094 7.28558 6.26365 7.12592 6.19733 7.00407C6.13517 6.87802 6.04814 6.78558 5.93624 6.72676C5.82434 6.66793 5.69586 6.63852 5.55081 6.63852C5.4099 6.63852 5.2835 6.66793 5.1716 6.72676C5.0597 6.78558 4.97059 6.87802 4.90428 7.00407C4.83797 7.12592 4.80067 7.28558 4.79239 7.48306C4.78824 7.65953 4.78617 7.8297 4.78617 7.99356C4.78617 8.15743 4.78824 8.3318 4.79239 8.51667C4.80482 8.81079 4.87942 9.02507 5.01618 9.15953C5.15295 9.29398 5.33116 9.36121 5.55081 9.36121Z" fill="#FEFAFC"/>
<path d="M8.35396 10.2057C8.30837 10.2057 8.27107 10.191 8.24206 10.1616C8.21305 10.1322 8.19854 10.0944 8.19854 10.0482V5.95155C8.19854 5.90533 8.21305 5.86751 8.24206 5.8381C8.27107 5.80869 8.30837 5.79398 8.35396 5.79398H9.01292C9.08337 5.79398 9.1331 5.81079 9.16211 5.8444C9.19527 5.87381 9.21599 5.89692 9.22428 5.91373L10.7411 8.3402V5.95155C10.7411 5.90533 10.7556 5.86751 10.7846 5.8381C10.8137 5.80869 10.851 5.79398 10.8965 5.79398H11.6425C11.6881 5.79398 11.7254 5.80869 11.7544 5.8381C11.7834 5.86751 11.7979 5.90533 11.7979 5.95155V10.0482C11.7979 10.0902 11.7834 10.128 11.7544 10.1616C11.7254 10.191 11.6881 10.2057 11.6425 10.2057H10.9774C10.911 10.2057 10.8613 10.1889 10.8282 10.1553C10.7992 10.1217 10.7805 10.0986 10.7722 10.086L9.25536 7.75407V10.0482C9.25536 10.0944 9.24086 10.1322 9.21185 10.1616C9.18284 10.191 9.14554 10.2057 9.09995 10.2057H8.35396Z" fill="#FEFAFC"/>
</svg>
